<svg width="181" height="40" viewBox="0 0 181 40" fill="none" xmlns="http://www.w3.org/2000/svg">
<path d="M16.8753 8.33301C15.4861 8.33301 14.36 9.45912 14.36 10.8483V15.4156L14.3579 15.4129C14.3093 16.4501 13.453 17.2761 12.4037 17.2761C11.3545 17.2761 10.4982 16.4501 10.4496 15.4129L10.4474 15.4156V14.2019C10.4474 12.8128 9.32136 11.6867 7.93223 11.6867C6.5431 11.6867 5.41699 12.8128 5.41699 14.2019V25.3808C5.41699 26.7699 6.5431 27.896 7.93223 27.896C9.32136 27.896 10.4474 26.7699 10.4474 25.3808V24.2629C10.4474 23.1825 11.3233 22.3066 12.4037 22.3066C13.4842 22.3066 14.36 23.1825 14.36 24.2629V28.7344C14.36 30.1236 15.4861 31.2497 16.8753 31.2497C18.2644 31.2497 19.3905 30.1236 19.3905 28.7344V10.8483C19.3905 9.45912 18.2644 8.33301 16.8753 8.33301Z" fill="#37C25E"/>
<path d="M24.7008 8.33301C26.0899 8.33301 27.216 9.45912 27.216 10.8483V15.4156L27.2182 15.4129C27.2668 16.4501 28.1231 17.2761 29.1723 17.2761C30.2216 17.2761 31.0779 16.4501 31.1265 15.4129L31.1286 15.4156V14.2019C31.1286 12.8128 32.2548 11.6867 33.6439 11.6867C35.033 11.6867 36.1591 12.8128 36.1591 14.2019V25.3808C36.1591 26.7699 35.033 27.896 33.6439 27.896C32.2548 27.896 31.1286 26.7699 31.1286 25.3808V24.2629C31.1286 23.1825 30.2528 22.3066 29.1723 22.3066C28.0919 22.3066 27.216 23.1825 27.216 24.2629V28.7344C27.216 30.1236 26.0899 31.2497 24.7008 31.2497C23.3117 31.2497 22.1855 30.1236 22.1855 28.7344V10.8483C22.1855 9.45912 23.3117 8.33301 24.7008 8.33301Z" fill="#37C25E"/>
<path d="M67.8906 11.4501V29.0001H63.6156V18.4751L59.6906 29.0001H56.2406L52.2906 18.4501V29.0001H48.0156V11.4501H53.0656L57.9906 23.6001L62.8656 11.4501H67.8906ZM84.7398 15.0501V29.0001H80.4648V27.1001C80.0315 27.7168 79.4398 28.2168 78.6898 28.6001C77.9565 28.9668 77.1398 29.1501 76.2398 29.1501C75.1732 29.1501 74.2315 28.9168 73.4148 28.4501C72.5982 27.9668 71.9648 27.2751 71.5148 26.3751C71.0648 25.4751 70.8398 24.4168 70.8398 23.2001V15.0501H75.0898V22.6251C75.0898 23.5584 75.3315 24.2834 75.8148 24.8001C76.2982 25.3168 76.9482 25.5751 77.7648 25.5751C78.5982 25.5751 79.2565 25.3168 79.7398 24.8001C80.2232 24.2834 80.4648 23.5584 80.4648 22.6251V15.0501H84.7398ZM93.4855 29.2001C92.2689 29.2001 91.1855 28.9918 90.2355 28.5751C89.2855 28.1584 88.5355 27.5918 87.9855 26.8751C87.4355 26.1418 87.1272 25.3251 87.0605 24.4251H91.2855C91.3355 24.9084 91.5605 25.3001 91.9605 25.6001C92.3605 25.9001 92.8522 26.0501 93.4355 26.0501C93.9689 26.0501 94.3772 25.9501 94.6605 25.7501C94.9605 25.5334 95.1105 25.2584 95.1105 24.9251C95.1105 24.5251 94.9022 24.2334 94.4855 24.0501C94.0689 23.8501 93.3939 23.6334 92.4605 23.4001C91.4605 23.1668 90.6272 22.9251 89.9605 22.6751C89.2939 22.4084 88.7189 22.0001 88.2355 21.4501C87.7522 20.8834 87.5105 20.1251 87.5105 19.1751C87.5105 18.3751 87.7272 17.6501 88.1605 17.0001C88.6105 16.3334 89.2605 15.8084 90.1105 15.4251C90.9772 15.0418 92.0022 14.8501 93.1855 14.8501C94.9355 14.8501 96.3105 15.2834 97.3105 16.1501C98.3272 17.0168 98.9105 18.1668 99.0605 19.6001H95.1105C95.0439 19.1168 94.8272 18.7334 94.4605 18.4501C94.1105 18.1668 93.6439 18.0251 93.0605 18.0251C92.5605 18.0251 92.1772 18.1251 91.9105 18.3251C91.6439 18.5084 91.5105 18.7668 91.5105 19.1001C91.5105 19.5001 91.7189 19.8001 92.1355 20.0001C92.5689 20.2001 93.2355 20.4001 94.1355 20.6001C95.1689 20.8668 96.0105 21.1334 96.6605 21.4001C97.3105 21.6501 97.8772 22.0668 98.3605 22.6501C98.8605 23.2168 99.1189 23.9834 99.1355 24.9501C99.1355 25.7668 98.9022 26.5001 98.4355 27.1501C97.9855 27.7834 97.3272 28.2834 96.4605 28.6501C95.6105 29.0168 94.6189 29.2001 93.4855 29.2001ZM103.901 13.6001C103.151 13.6001 102.535 13.3834 102.051 12.9501C101.585 12.5001 101.351 11.9501 101.351 11.3001C101.351 10.6334 101.585 10.0834 102.051 9.6501C102.535 9.2001 103.151 8.9751 103.901 8.9751C104.635 8.9751 105.235 9.2001 105.701 9.6501C106.185 10.0834 106.426 10.6334 106.426 11.3001C106.426 11.9501 106.185 12.5001 105.701 12.9501C105.235 13.3834 104.635 13.6001 103.901 13.6001ZM106.026 15.0501V29.0001H101.751V15.0501H106.026ZM108.274 22.0251C108.274 20.5751 108.566 19.3084 109.149 18.2251C109.749 17.1418 110.574 16.3084 111.624 15.7251C112.691 15.1418 113.908 14.8501 115.274 14.8501C117.024 14.8501 118.483 15.3084 119.649 16.2251C120.833 17.1418 121.608 18.4334 121.974 20.1001H117.424C117.041 19.0334 116.299 18.5001 115.199 18.5001C114.416 18.5001 113.791 18.8084 113.324 19.4251C112.858 20.0251 112.624 20.8918 112.624 22.0251C112.624 23.1584 112.858 24.0334 113.324 24.6501C113.791 25.2501 114.416 25.5501 115.199 25.5501C116.299 25.5501 117.041 25.0168 117.424 23.9501H121.974C121.608 25.5834 120.833 26.8668 119.649 27.8001C118.466 28.7334 117.008 29.2001 115.274 29.2001C113.908 29.2001 112.691 28.9084 111.624 28.3251C110.574 27.7418 109.749 26.9084 109.149 25.8251C108.566 24.7418 108.274 23.4751 108.274 22.0251ZM128.536 17.0251C128.953 16.3751 129.528 15.8501 130.261 15.4501C130.994 15.0501 131.853 14.8501 132.836 14.8501C133.986 14.8501 135.028 15.1418 135.961 15.7251C136.894 16.3084 137.628 17.1418 138.161 18.2251C138.711 19.3084 138.986 20.5668 138.986 22.0001C138.986 23.4334 138.711 24.7001 138.161 25.8001C137.628 26.8834 136.894 27.7251 135.961 28.3251C135.028 28.9084 133.986 29.2001 132.836 29.2001C131.869 29.2001 131.011 29.0001 130.261 28.6001C129.528 28.2001 128.953 27.6834 128.536 27.0501V35.6501H124.261V15.0501H128.536V17.0251ZM134.636 22.0001C134.636 20.9334 134.336 20.1001 133.736 19.5001C133.153 18.8834 132.428 18.5751 131.561 18.5751C130.711 18.5751 129.986 18.8834 129.386 19.5001C128.803 20.1168 128.511 20.9584 128.511 22.0251C128.511 23.0918 128.803 23.9334 129.386 24.5501C129.986 25.1668 130.711 25.4751 131.561 25.4751C132.411 25.4751 133.136 25.1668 133.736 24.5501C134.336 23.9168 134.636 23.0668 134.636 22.0001ZM143.379 13.6001C142.629 13.6001 142.012 13.3834 141.529 12.9501C141.062 12.5001 140.829 11.9501 140.829 11.3001C140.829 10.6334 141.062 10.0834 141.529 9.6501C142.012 9.2001 142.629 8.9751 143.379 8.9751C144.112 8.9751 144.712 9.2001 145.179 9.6501C145.662 10.0834 145.904 10.6334 145.904 11.3001C145.904 11.9501 145.662 12.5001 145.179 12.9501C144.712 13.3834 144.112 13.6001 143.379 13.6001ZM145.504 15.0501V29.0001H141.229V15.0501H145.504ZM147.752 22.0251C147.752 20.5751 148.043 19.3084 148.627 18.2251C149.227 17.1418 150.052 16.3084 151.102 15.7251C152.168 15.1418 153.385 14.8501 154.752 14.8501C156.502 14.8501 157.96 15.3084 159.127 16.2251C160.31 17.1418 161.085 18.4334 161.452 20.1001H156.902C156.518 19.0334 155.777 18.5001 154.677 18.5001C153.893 18.5001 153.268 18.8084 152.802 19.4251C152.335 20.0251 152.102 20.8918 152.102 22.0251C152.102 23.1584 152.335 24.0334 152.802 24.6501C153.268 25.2501 153.893 25.5501 154.677 25.5501C155.777 25.5501 156.518 25.0168 156.902 23.9501H161.452C161.085 25.5834 160.31 26.8668 159.127 27.8001C157.943 28.7334 156.485 29.2001 154.752 29.2001C153.385 29.2001 152.168 28.9084 151.102 28.3251C150.052 27.7418 149.227 26.9084 148.627 25.8251C148.043 24.7418 147.752 23.4751 147.752 22.0251ZM172.313 14.9001C173.913 14.9001 175.197 15.4334 176.163 16.5001C177.13 17.5501 177.613 19.0001 177.613 20.8501V29.0001H173.363V21.4251C173.363 20.4918 173.122 19.7668 172.638 19.2501C172.155 18.7334 171.505 18.4751 170.688 18.4751C169.872 18.4751 169.222 18.7334 168.738 19.2501C168.255 19.7668 168.013 20.4918 168.013 21.4251V29.0001H163.738V10.5001H168.013V16.9251C168.447 16.3084 169.038 15.8168 169.788 15.4501C170.538 15.0834 171.38 14.9001 172.313 14.9001Z" fill="white"/>
</svg>
